<svg id="undraw_Confirmation_re_b6q5" xmlns="http://www.w3.org/2000/svg" width="252.391" height="180.702" viewBox="0 0 252.391 180.702">
  <path id="Path_3219" data-name="Path 3219" d="M684.68,364.922H546.568a7.339,7.339,0,0,0-7.332,7.332v22.383a7.339,7.339,0,0,0,7.332,7.332H684.68a7.339,7.339,0,0,0,7.332-7.332V372.255A7.339,7.339,0,0,0,684.68,364.922Z" transform="translate(-439.751 -311.969)" fill="#f2f2f2"/>
  <path id="Path_3220" data-name="Path 3220" d="M368.3,654.421H313.354a.44.44,0,0,1,0-.879H368.3a.44.44,0,0,1,0,.879Z" transform="translate(-312.915 -473.719)" fill="#3f3d56"/>
  <path id="Path_3221" data-name="Path 3221" d="M414.391,341.6a4.122,4.122,0,0,0-.845,6.264l-3.995,8.53,4.592,3.692,5.472-12.125a4.144,4.144,0,0,0-5.224-6.36Z" transform="translate(-367.072 -298.533)" fill="#ffb8b8"/>
  <path id="Path_3222" data-name="Path 3222" d="M364.789,349.265h0A5.74,5.74,0,0,1,372.518,351l8.174,12.239,2.838-6.256a1.758,1.758,0,0,1,2.126-.952l4.283,1.338a1.758,1.758,0,0,1,1.141,2.242l-2.932,8.657a7.481,7.481,0,0,1-11.323,3.766h0a7.481,7.481,0,0,1-1.225-1.054l-12.045-12.87a5.74,5.74,0,0,1,1.235-8.843Z" transform="translate(-340.426 -302.735)" fill="#ccc"/>
  <path id="Path_3223" data-name="Path 3223" d="M417.63,321.543a.827.827,0,0,1,.807.848l-.071,2.841.142.013-.051,1.929-.139-.017-.253,10.177a1.435,1.435,0,0,1-1.284,1.391l-6.471.681a1.086,1.086,0,0,1-1.2-1.154l.982-14.492a1.344,1.344,0,0,1,1.135-1.237l6.247-.971h0A.825.825,0,0,1,417.63,321.543Z" transform="translate(-366.825 -287.658)" fill="#3f3d56"/>
  <path id="Path_3224" data-name="Path 3224" d="M413.387,323.526l3.284-.51a.272.272,0,0,0,.229-.239h0a.308.308,0,0,1,.259-.271l.692-.107a.653.653,0,0,1,.753.661l-.356,14.755a.745.745,0,0,1-.679.724l-6.467.575a.576.576,0,0,1-.625-.608l.872-14.358a.929.929,0,0,1,.785-.861l.729-.113A.465.465,0,0,0,413.387,323.526Z" transform="translate(-367.591 -288.133)" fill="#fff"/>
  <path id="Path_3225" data-name="Path 3225" d="M69.52,374.233h5.025l2.39-19.383H69.518Z" transform="translate(-38.96 -198.867)" fill="#ffb8b8"/>
  <path id="Path_3226" data-name="Path 3226" d="M0,0H15.794V6.1H6.1A6.1,6.1,0,0,1,0,0Z" transform="translate(45.277 180.032) rotate(179.995)" fill="#2f2e41"/>
  <path id="Path_3227" data-name="Path 3227" d="M34.384,374.233h5.025l2.39-19.383H34.382Z" transform="translate(-19.269 -198.867)" fill="#ffb8b8"/>
  <path id="Path_3228" data-name="Path 3228" d="M0,0H15.794V6.1H6.1A6.1,6.1,0,0,1,0,0Z" transform="translate(29.833 180.032) rotate(179.995)" fill="#2f2e41"/>
  <circle id="Ellipse_17" data-name="Ellipse 17" cx="10.796" cy="10.796" r="10.796" transform="translate(19.036 18.35)" fill="#ffb8b8"/>
  <path id="Path_3229" data-name="Path 3229" d="M365.948,357.122a16.642,16.642,0,0,0-8.035-13.72c-2.789-1.644-5.842-2.285-8.271.144a16.859,16.859,0,0,0-3.444,5.17,22.2,22.2,0,0,0-.411,16.48l5.781,15.971,13.38,1.45a1.758,1.758,0,0,0,1.946-1.818Z" transform="translate(-330.559 -299.09)" fill="#2f2e41"/>
  <path id="Path_3230" data-name="Path 3230" d="M352.669,426.7s-10,3.732-7.383,19.534c2.345,14.18.482,61.246.074,70.76a1.757,1.757,0,0,0,1.611,1.826l5.835.486a1.758,1.758,0,0,0,1.894-1.562l3.014-27.682a.44.44,0,0,1,.875.011l2.246,26.636a1.758,1.758,0,0,0,1.808,1.61l4.9-.155a1.758,1.758,0,0,0,1.7-1.815l-2.887-87.8Z" transform="translate(-330.812 -346.593)" fill="#2f2e41"/>
  <path id="Path_3231" data-name="Path 3231" d="M361.949,290.036a7.825,7.825,0,1,0-3.431-11.741c-1.826-3.29-6.61-4.129-9.895-2.293s-5.074,5.681-5.286,9.438.93,7.458,2.323,10.953a11.953,11.953,0,0,0,15.123,6.345A10.4,10.4,0,0,1,361.949,290.036Z" transform="translate(-329.949 -261.601)" fill="#2f2e41"/>
  <path id="Path_395" data-name="Path 395" d="M416.964,341.272a.443.443,0,0,1-.267-.089l0,0-1-.768a.446.446,0,1,1,.543-.708l.65.5,1.536-2a.446.446,0,0,1,.625-.083h0l-.01.013.01-.013a.446.446,0,0,1,.082.625l-1.807,2.357a.446.446,0,0,1-.355.174Z" transform="translate(-370.414 -296.895)" fill="#009bdf"/>
  <path id="Path_3232" data-name="Path 3232" d="M684.975,244.458H546.863a7.339,7.339,0,0,0-7.332,7.332v22.383a7.339,7.339,0,0,0,7.332,7.332H684.975a7.339,7.339,0,0,0,7.332-7.332V251.79A7.339,7.339,0,0,0,684.975,244.458Zm6.56,29.715a6.57,6.57,0,0,1-6.56,6.56H546.863a6.57,6.57,0,0,1-6.56-6.56V251.79a6.57,6.57,0,0,1,6.56-6.56H684.975a6.57,6.57,0,0,1,6.56,6.56Z" transform="translate(-439.916 -244.458)" fill="#3f3d56"/>
  <path id="Path_3233" data-name="Path 3233" d="M603.88,283.089a12.762,12.762,0,1,1,12.762-12.762A12.762,12.762,0,0,1,603.88,283.089Z" transform="translate(-468.827 -251.803)" fill="#009bdf"/>
  <path id="Path_3234" data-name="Path 3234" d="M739.031,302.429H672.7a3.087,3.087,0,1,1,0-6.174h66.333a3.087,3.087,0,0,1,0,6.174Z" transform="translate(-512.816 -273.486)" fill="#ccc"/>
  <path id="Path_3235" data-name="Path 3235" d="M694.651,272.58H672.7a3.087,3.087,0,1,1,0-6.174h21.953a3.087,3.087,0,0,1,0,6.174Z" transform="translate(-512.816 -256.758)" fill="#ccc"/>
  <path id="Path_395-2" data-name="Path 395" d="M612.577,283.162a1.459,1.459,0,0,1-.878-.292l-.016-.012-3.308-2.53A1.47,1.47,0,0,1,610.164,278l2.142,1.643,5.063-6.6a1.469,1.469,0,0,1,2.06-.272h0l-.031.044.032-.044a1.471,1.471,0,0,1,.272,2.06l-5.955,7.765a1.47,1.47,0,0,1-1.169.573Z" transform="translate(-478.176 -260.15)" fill="#fff"/>
  <path id="Path_3236" data-name="Path 3236" d="M549.975,381.458H411.863a7.339,7.339,0,0,0-7.332,7.332v22.383a7.339,7.339,0,0,0,7.332,7.332H549.975a7.339,7.339,0,0,0,7.332-7.332V388.79a7.339,7.339,0,0,0-7.332-7.332Z" transform="translate(-364.259 -321.236)" fill="#fff"/>
  <path id="Path_3237" data-name="Path 3237" d="M549.975,381.458H411.863a7.339,7.339,0,0,0-7.332,7.332v22.383a7.339,7.339,0,0,0,7.332,7.332H549.975a7.339,7.339,0,0,0,7.332-7.332V388.79a7.339,7.339,0,0,0-7.332-7.332Zm6.56,29.715a6.57,6.57,0,0,1-6.56,6.56H411.863a6.57,6.57,0,0,1-6.56-6.56V388.79a6.57,6.57,0,0,1,6.56-6.56H549.975a6.57,6.57,0,0,1,6.56,6.56Z" transform="translate(-364.259 -321.236)" fill="#3f3d56"/>
  <path id="Path_3238" data-name="Path 3238" d="M468.88,420.089a12.762,12.762,0,1,1,12.762-12.762A12.762,12.762,0,0,1,468.88,420.089Z" transform="translate(-393.169 -328.582)" fill="#009bdf"/>
  <path id="Path_3239" data-name="Path 3239" d="M604.031,439.429H537.7a3.087,3.087,0,0,1,0-6.175h66.333a3.087,3.087,0,1,1,0,6.175Z" transform="translate(-437.159 -350.264)" fill="#ccc"/>
  <path id="Path_3240" data-name="Path 3240" d="M559.651,409.58H537.7a3.087,3.087,0,0,1,0-6.174h21.953a3.087,3.087,0,1,1,0,6.175Z" transform="translate(-437.159 -333.536)" fill="#ccc"/>
  <path id="Path_395-3" data-name="Path 395" d="M477.577,420.162a1.46,1.46,0,0,1-.878-.292l-.016-.012-3.308-2.53A1.47,1.47,0,0,1,475.164,415l2.142,1.643,5.063-6.6a1.469,1.469,0,0,1,2.06-.272h0l-.031.044.032-.044a1.471,1.471,0,0,1,.272,2.06l-5.955,7.765a1.47,1.47,0,0,1-1.169.573Z" transform="translate(-402.518 -336.928)" fill="#fff"/>
  <path id="Path_3241" data-name="Path 3241" d="M391.493,392.529a4.122,4.122,0,0,0-5.625,2.882L376.584,397l-.41,5.878,13.079-2.43a4.144,4.144,0,0,0,2.239-7.92Z" transform="translate(-348.367 -327.258)" fill="#ffb8b8"/>
  <path id="Path_3242" data-name="Path 3242" d="M359.673,353.923h0a5.74,5.74,0,0,1,2.99,7.335l-5.382,13.7,6.756-1.242a1.758,1.758,0,0,1,2,1.2l1.347,4.28a1.758,1.758,0,0,1-1.19,2.217l-8.781,2.535a7.481,7.481,0,0,1-9.556-7.146h0a7.482,7.482,0,0,1,.166-1.608l3.69-17.237a5.74,5.74,0,0,1,7.965-4.034Z" transform="translate(-332.494 -305.522)" fill="#ccc"/>
</svg>
