<svg id="Lottie_About" data-name="Lottie — About" xmlns="http://www.w3.org/2000/svg" width="128" height="128" viewBox="0 0 128 128">
  <rect id="background" width="128" height="128" fill="#7b1b67" opacity="0"/>
  <path id="Path_5954" data-name="Path 5954" d="M159,160.35" transform="translate(-79.731 -80.175)" fill="#164394"/>
  <path id="Path_5955" data-name="Path 5955" d="M114.432,172.1a5.327,5.327,0,0,0-2.352,2.188l-7.84,19.64,4.681,1.725,7.12-13.419,4.887,14.694,4.777-.721-2.814-13.467a2.5,2.5,0,0,1,2.257-2.9l.374-.029,25.311-2.088L124.108,167.5" transform="translate(-52.35 -83.749)" fill="#164394"/>
  <path id="Path_5956" data-name="Path 5956" d="M125.891,183.52a.5.5,0,0,1-.474-.339c-1.533-4.526-.931-7.479,2.016-9.875a.5.5,0,0,1,.631.776c-2.6,2.116-3.1,4.659-1.7,8.777a.5.5,0,0,1-.474.66Z" transform="translate(-62.531 -86.597)" fill="#16151c"/>
  <path id="Path_5957" data-name="Path 5957" d="M96.02,230.382a.5.5,0,0,1-.25-.067l-9.354-5.4a.5.5,0,0,1,.295-.932c2.247.205,8.155.166,8.5-2.43a.5.5,0,0,1,.992.133c-.386,2.884-4.847,3.353-7.549,3.367l7.117,4.11,2.3-5.637A.5.5,0,1,1,99,223.9l-2.521,6.167a.5.5,0,0,1-.3.283A.484.484,0,0,1,96.02,230.382Z" transform="translate(-43.313 -110.56)" fill="#16151c"/>
  <path id="Path_5958" data-name="Path 5958" d="M128.5,235.631a.5.5,0,0,1-.292-.906c1.83-1.32,6.264-5.224,4.822-7.413a.5.5,0,1,1,.835-.55c1.6,2.43-1.458,5.71-3.487,7.494l8.067-1.568-1.959-5.766a.5.5,0,0,1,.947-.322l2.143,6.307a.5.5,0,0,1-.379.652l-10.6,2.061A.475.475,0,0,1,128.5,235.631Z" transform="translate(-64.229 -113.131)" fill="#16151c"/>
  <path id="Path_5959" data-name="Path 5959" d="M153.757,238.645" transform="translate(-77.109 -119.323)" fill="none" stroke="#16151c" stroke-linecap="round" stroke-linejoin="round" stroke-width="2"/>
  <path id="Path_5960" data-name="Path 5960" d="M202.041,241.052" transform="translate(-101.251 -120.526)" fill="none" stroke="#16151c" stroke-linecap="round" stroke-linejoin="round" stroke-width="2"/>
  <path id="Path_5961" data-name="Path 5961" d="M182.209,152.2c2.889-10.809-5.766-26.846-10.785-28.622a2.313,2.313,0,0,0-3.1,1.414.5.5,0,1,0,.913.407,1.321,1.321,0,0,1,1.858-.88c4.634,1.641,12.865,17.273,10.153,27.422-2.08,7.786-10.064,10.635-23.093,8.238a.5.5,0,1,0-.181.983c1.359.25,2.639.438,3.856.575L151.083,183.48a.5.5,0,1,0,.9.443l10.908-22.077q1.219.109,2.342.146a.491.491,0,0,0,.042.422L178.7,183.966a.5.5,0,0,0,.849-.529L166.2,162.011l.182,0C177.072,162.013,180.939,156.956,182.209,152.2Z" transform="translate(-75.746 -61.702)" fill="#16151c"/>
  <path id="Path_5962" data-name="Path 5962" d="M143.458,137.839c-8.494-3.853-7.327-2.168-7.267-9.665,0-.4.009-.812.017-1.228l-5.35.847-1.146-7.211,2.134-.338,2.057-13.866,4.774,2.378c1.822-5.3,4.927-8.661,10.149-6.719,4.542,1.685,14.234,27.774,15.448,39.664C165.219,150.918,160.951,145.769,143.458,137.839Z" transform="translate(-65.087 -50.741)" fill="#0499dd"/>
  <path id="Path_5963" data-name="Path 5963" d="M96.316,147.924c-4.25.563-6.439-.169-6.583-.838-.124-.585,1.328-1.94,5.84-3.275a.5.5,0,0,0-.283-.959c-4.538,1.342-6.859,2.92-6.535,4.441a1.38,1.38,0,0,0,.2.473H62.367a.5.5,0,0,0,0,1H90.205a.5.5,0,0,0,.206-.047,10.178,10.178,0,0,0,3.113.4,22.481,22.481,0,0,0,2.923-.208.5.5,0,0,0-.131-.991Z" transform="translate(-31.164 -71.416)" fill="#16151c"/>
  <path id="Path_5964" data-name="Path 5964" d="M157.443,78.242a7.812,7.812,0,0,0-10.164-8.178,19.547,19.547,0,0,1-.165-2.531.5.5,0,0,0-1,0,20.306,20.306,0,0,0,.207,2.9,7.848,7.848,0,0,0-2.577,1.907l-.123.011c-2.62.286-2.735.492-2.856.71a.553.553,0,0,0-.014.485h0c.051.106.234.419.609,1.057.224.38.529.9.572.987a.46.46,0,0,0,.038.064L142,75.7a7.533,7.533,0,0,0-.191,1.128,7.8,7.8,0,0,0,.664,3.928l-.014-.005a.5.5,0,0,0-.568.421,14.737,14.737,0,0,0-.148,2.842c.035,1.424.06,2.364-1.709,5.382a.5.5,0,1,0,.863.506c1.913-3.263,1.884-4.375,1.846-5.913a14.081,14.081,0,0,1,.115-2.5,7.719,7.719,0,0,0,4.316,3.491,13.374,13.374,0,0,0-4.021,5.948.5.5,0,0,0,.318.631.478.478,0,0,0,.157.025.5.5,0,0,0,.475-.343,11.889,11.889,0,0,1,4.129-5.789.481.481,0,0,0,.163-.179c.174.028.349.057.527.074.238.021.476.032.711.032a7.862,7.862,0,0,0,6.761-3.888.441.441,0,0,0,.04-.07A7.794,7.794,0,0,0,157.443,78.242Zm-7.2-7.527a6.847,6.847,0,0,1,5.438,10.022c-3.936-.19-7.23-4.23-8.242-9.675A6.8,6.8,0,0,1,150.242,70.715ZM149.01,84.356a6.817,6.817,0,0,1-5.986-8.618.5.5,0,0,0-.07-.413l-.14-.205c-.071-.134-.252-.444-.59-1.019l-.293-.5c.461-.086,1.173-.186,1.79-.253l.316-.029a.5.5,0,0,0,.338-.176,6.868,6.868,0,0,1,2.123-1.686c1.1,5.531,4.476,9.688,8.565,10.227A6.835,6.835,0,0,1,149.01,84.356Z" transform="translate(-70.213 -33.516)" fill="#16151c"/>
  <path id="Path_5965" data-name="Path 5965" d="M146.79,138.735a.5.5,0,0,1,0-1c8.855,0,14.8-5.046,14.8-12.557a.5.5,0,1,1,1,0C162.594,133.287,156.243,138.735,146.79,138.735Z" transform="translate(-73.375 -62.339)" fill="#16151c"/>
  <path id="Path_5966" data-name="Path 5966" d="M134.876,133.006a.5.5,0,0,1-.066-1c9.791-1.309,10.574-2.742,11.566-4.555a11.507,11.507,0,0,1,.645-1.082.5.5,0,0,1,.823.567,10.844,10.844,0,0,0-.591.994c-1.127,2.062-2.019,3.69-12.311,5.066A.5.5,0,0,1,134.876,133.006Z" transform="translate(-67.419 -63.078)" fill="#16151c"/>
  <path id="Path_5967" data-name="Path 5967" d="M105.533,21.983H83.295a.5.5,0,0,1,0-1h22.238a.5.5,0,0,1,0,1Z" transform="translate(-41.628 -10.491)" fill="#16151c"/>
  <path id="Path_5968" data-name="Path 5968" d="M105.533,31.144H83.295a.5.5,0,0,1,0-1h22.238a.5.5,0,0,1,0,1Z" transform="translate(-41.628 -15.072)" fill="#16151c"/>
  <path id="Path_5969" data-name="Path 5969" d="M105.533,40.305H83.295a.5.5,0,0,1,0-1h22.238a.5.5,0,0,1,0,1Z" transform="translate(-41.628 -19.653)" fill="#16151c"/>
  <path id="Path_5970" data-name="Path 5970" d="M89.9,40.016a.5.5,0,0,1-.4-.2l-6.613-8.676H45.55a4.094,4.094,0,0,1-4.089-4.089V15.09A4.094,4.094,0,0,1,45.55,11H86.289a4.094,4.094,0,0,1,4.09,4.09V27.055A4.1,4.1,0,0,1,88.34,30.59L90.388,39.4a.5.5,0,0,1-.487.613ZM45.55,12a3.093,3.093,0,0,0-3.089,3.09V27.055a3.093,3.093,0,0,0,3.089,3.089H83.139a.5.5,0,0,1,.4.2l5.351,7.02-1.609-6.923a.5.5,0,0,1,.281-.569,3.1,3.1,0,0,0,1.82-2.814V15.09A3.093,3.093,0,0,0,86.289,12Z" transform="translate(-20.961 -5.5)" fill="#16151c"/>
  <path id="Path_5971" data-name="Path 5971" d="M64.3,31.074H55.136a.5.5,0,0,1-.5-.5V21.413a.5.5,0,0,1,.5-.5H64.3a.5.5,0,0,1,.5.5v9.161A.5.5,0,0,1,64.3,31.074Zm-8.661-1H63.8V21.913H55.636Z" transform="translate(-27.549 -10.457)" fill="#16151c"/>
</svg>
