<svg id="Lottie_Success" data-name="Lottie — Success" xmlns="http://www.w3.org/2000/svg" width="128" height="128" viewBox="0 0 128 128">
  <rect id="background" width="128" height="128" fill="#7b1b67" opacity="0"/>
  <path id="Path_6001" data-name="Path 6001" d="M36.03,133.385l20.5-1.5c1.018,16.83,3.367,31.813,2.509,45.322L53,177.3,46.516,147.79l-5.4,30.2-5.582.091C34.839,163.723,34.459,149.351,36.03,133.385Z" transform="translate(-17.466 -66.194)" fill="#164394"/>
  <path id="Path_6002" data-name="Path 6002" d="M31.342,146.244s-.657,9.689,5.036,5.966c0,0,3.328-1.251.657-7.389" transform="translate(-15.66 -72.66)" fill="#fff"/>
  <path id="Path_6003" data-name="Path 6003" d="M33.581,153.062a2.393,2.393,0,0,1-1.232-.327c-2.326-1.362-2.051-6.449-2.012-7.024a.506.506,0,0,1,.532-.465.5.5,0,0,1,.465.533c-.094,1.393,0,5.2,1.52,6.095.652.38,1.573.184,2.744-.581a.487.487,0,0,1,.1-.049,2.259,2.259,0,0,0,1.1-1.251c.366-.891.536-2.565-.729-5.471a.5.5,0,1,1,.917-.4c1.138,2.615,1.379,4.731.719,6.292a3.3,3.3,0,0,1-1.6,1.74A4.8,4.8,0,0,1,33.581,153.062Z" transform="translate(-15.154 -72.16)" fill="#16151c"/>
  <path id="Path_6004" data-name="Path 6004" d="M145.1,61.663a6.984,6.984,0,0,1-5.443-2.6l-1.535.111s-5.8-.215-7.952-.481-6.125-13.627-6.125-13.627l-4.191,1.409A107.363,107.363,0,0,0,123.4,60.784c1.182,3.009,11.561,5.621,11.561,5.621-4,2.493,0,11.91,0,11.91l10.93,2.216c6.98-7.367,3.645-15.121,1.016-19.111A7,7,0,0,1,145.1,61.663Z" transform="translate(-59.925 -22.782)" fill="#0499dd"/>
  <path id="Path_6005" data-name="Path 6005" d="M185.04,60.005c-.222-.019-.442-.02-.662-.024l.008-.09s-6.491.028-11.174-3.02a25.791,25.791,0,0,1-5.684-4.542,7.484,7.484,0,0,0-12.079-.016l-.108.019c-2.474.5-2.563.7-2.666.933a.554.554,0,0,0,.03.484c.059.1.259.378.67.952.243.341.577.806.626.886a.5.5,0,0,0,.042.06l.027.032a7.173,7.173,0,0,0-.083,1.079,7.447,7.447,0,0,0,8.606,7.411c2.591,7.116,8.163,14.416,20.117,14.625l.006-.063c.231.038.462.076.7.1a9.447,9.447,0,0,0,1.626-18.824ZM161.487,63.26a6.475,6.475,0,0,1-6.4-7.637.5.5,0,0,0-.105-.4l-.15-.182c-.079-.122-.279-.4-.647-.916l-.3-.42c.43-.119,1.078-.271,1.642-.384l.3-.055a.5.5,0,0,0,.321-.206,6.508,6.508,0,0,1,4.272-2.7l-.056.272a39.859,39.859,0,0,0,1.893,12.581A6.427,6.427,0,0,1,161.487,63.26Z" transform="translate(-76.317 -24.879)" fill="#16151c"/>
  <path id="Path_6006" data-name="Path 6006" d="M144.589,111.565l10.93,2.216s11.07,7.945-2.047,29.98l13.5,17.2-6.009,3.187-11.384-8.129-1.224,11.213H140.8S135.123,116.713,144.589,111.565Z" transform="translate(-69.557 -56.033)" fill="#164394"/>
  <line id="Line_460" data-name="Line 460" x2="0.183" y2="5.497" transform="translate(52.281 5.75)" fill="#fff"/>
  <path id="Path_6007" data-name="Path 6007" d="M104.493,17.5a.25.25,0,0,1-.25-.242l-.183-5.5a.25.25,0,0,1,.242-.258.237.237,0,0,1,.258.241l.183,5.5a.25.25,0,0,1-.242.258Z" transform="translate(-52.03 -6)" fill="#16151c"/>
  <line id="Line_461" data-name="Line 461" x2="2.686" y2="3.844" transform="translate(47.036 7.877)" fill="#fff"/>
  <path id="Path_6008" data-name="Path 6008" d="M96.509,20.1a.249.249,0,0,1-.2-.107l-2.687-3.843a.25.25,0,1,1,.41-.287L96.714,19.7a.25.25,0,0,1-.062.348A.247.247,0,0,1,96.509,20.1Z" transform="translate(-46.787 -8.127)" fill="#16151c"/>
  <line id="Line_462" data-name="Line 462" x1="1.93" y2="4.483" transform="translate(55.353 6.823)" fill="#fff"/>
  <path id="Path_6009" data-name="Path 6009" d="M110.457,18.63a.25.25,0,0,1-.23-.349l1.93-4.483a.25.25,0,1,1,.459.2l-1.93,4.483A.249.249,0,0,1,110.457,18.63Z" transform="translate(-55.104 -7.073)" fill="#16151c"/>
  <path id="Path_6010" data-name="Path 6010" d="M216.828,238.081H196.711a.5.5,0,0,1,0-1h20.117a.5.5,0,0,1,0,1Z" transform="translate(-98.106 -118.79)" fill="#16151c"/>
  <path id="Path_6011" data-name="Path 6011" d="M86,37.893s-2.964-1.981-3.118-2.216-.942-1.654.545-1.8c.206-.016,2.2,0,2.2,0s-1.637-5.008.463-5.641c.28-.082,2.526-.83,3.814,3.294a47.467,47.467,0,0,1,.719,5.339" transform="translate(-41.27 -14.318)" fill="#fff"/>
  <path id="Path_6012" data-name="Path 6012" d="M85.5,37.9a.5.5,0,0,1-.277-.085c-3.049-2.038-3.2-2.263-3.258-2.359a2.1,2.1,0,0,1-.305-1.847,1.377,1.377,0,0,1,1.222-.72c.152-.012.96-.011,1.579-.007-.3-1.137-.768-3.4-.091-4.7a1.766,1.766,0,0,1,1.079-.916c.72-.215,3.123-.576,4.434,3.624a45.548,45.548,0,0,1,.742,5.513.5.5,0,0,1-1-.049,51.376,51.376,0,0,0-.687-5.137c-.72-2.3-1.877-3.388-3.187-3a.788.788,0,0,0-.5.425c-.58,1.112.055,3.686.349,4.585a.5.5,0,0,1-.475.656h0c-.948-.008-2.025-.011-2.159,0-.213.02-.369.081-.407.158-.081.168.072.588.225.837.242.225,1.693,1.234,2.994,2.1a.5.5,0,0,1-.279.916Z" transform="translate(-40.77 -13.828)" fill="#16151c"/>
  <path id="Path_6013" data-name="Path 6013" d="M121.434,35.311s1.437-2.82,1.453-3.069.012-1.689-1.2-1.155c-.167.077-1.7.954-1.7.954s-.9-4.589-2.805-4.168c-.252.058-2.316.453-1.525,4.206a42.28,42.28,0,0,0,1.759,4.447" transform="translate(-57.736 -14.173)" fill="#fff"/>
  <path id="Path_6014" data-name="Path 6014" d="M116.9,36.525a.492.492,0,0,1-.419-.232,39.845,39.845,0,0,1-1.829-4.639c-.81-3.842,1.247-4.618,1.9-4.764a1.654,1.654,0,0,1,1.292.247c1.076.7,1.7,2.6,1.973,3.641.476-.27,1.044-.59,1.158-.642a1.279,1.279,0,0,1,1.323.029,1.923,1.923,0,0,1,.588,1.612c-.008.115-.023.352-1.507,3.264a.5.5,0,1,1-.891-.454c.622-1.222,1.3-2.618,1.4-2.912a1.075,1.075,0,0,0-.165-.689c-.037-.025-.158-.016-.338.063-.1.047-.921.51-1.657.931a.5.5,0,0,1-.738-.337c-.161-.817-.781-3.07-1.694-3.667a.64.64,0,0,0-.513-.109c-1.161.26-1.572,1.576-1.143,3.614a44.058,44.058,0,0,0,1.694,4.287.5.5,0,0,1-.43.761Z" transform="translate(-57.235 -13.675)" fill="#16151c"/>
  <path id="Path_6015" data-name="Path 6015" d="M31.92,235.842H18.055a.5.5,0,0,1-.142-.98c4.72-1.4,8.752-3.257,8.805-4.059a28.82,28.82,0,0,0,0-3.461.5.5,0,0,1,.463-.535.493.493,0,0,1,.535.463,29.253,29.253,0,0,1,0,3.6c-.094,1.41-3.634,2.95-6.507,3.971H31.43l.158-7.668a.517.517,0,0,1,.51-.49.5.5,0,0,1,.49.51l-.168,8.157A.5.5,0,0,1,31.92,235.842Z" transform="translate(-8.778 -113.592)" fill="#16151c"/>
  <path id="Path_6016" data-name="Path 6016" d="M85.408,235.235H72.259a.5.5,0,0,1-.5-.506l.091-8.035a.5.5,0,0,1,.5-.495h.006a.5.5,0,0,1,.494.506l-.086,7.53h10.6c-2.782-1.577-7.588-4.873-6.212-8.213a.5.5,0,0,1,.925.381c-1.248,3.029,5.019,6.714,7.538,7.878a.5.5,0,0,1-.21.954Z" transform="translate(-35.88 -113.106)" fill="#16151c"/>
  <path id="Path_6017" data-name="Path 6017" d="M145.151,234.006h-.011l-14.408-.324a.5.5,0,0,1-.111-.985c.051-.013,5.122-1.329,6.7-4.4a4.422,4.422,0,0,0,.07-3.775.5.5,0,1,1,.93-.368,5.377,5.377,0,0,1-.11,4.6,9.836,9.836,0,0,1-4.781,3.99l11.1.251-1.833-8.524a.5.5,0,0,1,.977-.21l1.966,9.143a.5.5,0,0,1-.489.6Z" transform="translate(-65.122 -112.167)" fill="#16151c"/>
  <path id="Path_6018" data-name="Path 6018" d="M184.994,227.182a.492.492,0,0,1-.154-.024.5.5,0,0,1-.319-.312c-.312-.9.509-2.872,2.44-5.863a2.442,2.442,0,0,0,.441-1.937c-.382-1.993-2.914-3.692-2.94-3.709a.5.5,0,0,1,.552-.834c.118.078,2.907,1.944,3.37,4.352a3.424,3.424,0,0,1-.592,2.685,21.022,21.022,0,0,0-2.184,4.1l10.848-7.654c-1.016-.91-4.1-3.319-6.91-5.442a.5.5,0,0,1,.6-.8c7.4,5.6,7.5,6,7.549,6.2a.5.5,0,0,1-.2.528l-12.218,8.621A.5.5,0,0,1,184.994,227.182Z" transform="translate(-92.12 -106.071)" fill="#16151c"/>
  <path id="Path_6019" data-name="Path 6019" d="M62.947,47.389,56.91,48.507s.182,10.34-2.69,10.2c-1.726-.084-7.713,0-12.914.293a6.736,6.736,0,0,1-5.576.45,15.478,15.478,0,0,0-2.268.4c-2.947.871-11.176,2.123-7.034,29.784h0l.01.052c.374,2.495.847,5.2,1.436,8.143h0l7.184-2-1.139-4.892,17.785-1.3L50.37,68.349s12.3-4.611,12.576-6.987S63.925,50.6,62.947,47.389Z" transform="translate(-12.643 -23.944)" fill="#0499dd"/>
  <path id="Path_6020" data-name="Path 6020" d="M52.461,47.219c-.063-.243-.119-.452-2.433-1.321l-.087-.031a7.315,7.315,0,0,0-.9-1.342,19.05,19.05,0,0,0,2.583-4.079.5.5,0,0,0-.906-.424A18.077,18.077,0,0,1,48.349,43.8a7.308,7.308,0,1,0,2.312,6.578,7.06,7.06,0,0,0,.087-1.047l.025-.022a.5.5,0,0,0,.051-.052c.059-.069.451-.465.738-.753.484-.488.72-.727.792-.812h0A.547.547,0,0,0,52.461,47.219Zm-15.25.989a6.3,6.3,0,0,1,10.481-3.649,20.217,20.217,0,0,1-10.426,5.924A6.281,6.281,0,0,1,37.211,48.208ZM50.853,47.8c-.433.437-.668.675-.764.781l-.171.151a.5.5,0,0,0-.169.382,6.305,6.305,0,0,1-7.311,6.332,6.312,6.312,0,0,1-4.892-4,21.3,21.3,0,0,0,10.83-6.155,6.325,6.325,0,0,1,.757,1.2.5.5,0,0,0,.284.255l.268.1c.521.2,1.114.438,1.508.618Z" transform="translate(-18.065 -20.117)" fill="#16151c"/>
  <path id="Path_6021" data-name="Path 6021" d="M39,104.252a.5.5,0,0,1-.5-.455L37.374,91.348a.5.5,0,0,1,.452-.544.494.494,0,0,1,.544.453L39.5,103.706a.5.5,0,0,1-.452.543Z" transform="translate(-18.686 -45.651)" fill="#16151c"/>
</svg>
