<svg id="Icon_Like_-_Thumbs_up" data-name="Icon — Like - Thumbs up" xmlns="http://www.w3.org/2000/svg" width="24" height="24" viewBox="0 0 24 24">
  <rect id="Rectangle_1110" data-name="Rectangle 1110" width="24" height="24" fill="#009bdf" opacity="0"/>
  <path id="Path_6185" data-name="Path 6185" d="M16.807,9.5A1.99,1.99,0,0,1,15.5,13H12.86A4.793,4.793,0,0,1,14,16c0,2.12-.363,3.339-1.14,3.833a2.07,2.07,0,0,1-2.072-.084l-.242-.114-.04-.264C10.061,16.44,8.087,15.456,6,14.414l-.221-.11a11.457,11.457,0,0,1-3.515-2.755H1.673A1.894,1.894,0,0,1,0,9.583V3.875A1.627,1.627,0,0,1,1.673,2.221h.37C2.578,1.614,4.385,0,8.5,0H14a1.99,1.99,0,0,1,1.518,3.289,1.983,1.983,0,0,1,.637,2.83,1.98,1.98,0,0,1,.652,3.38ZM16.5,11a1,1,0,0,0-1-1h-5a1,1,0,0,0,0,2h5A1,1,0,0,0,16.5,11ZM2.7,3l-.148.225H1.673A.628.628,0,0,0,1,3.875V9.583c0,.46.352.965.673.965H2.749l.15.2a10.4,10.4,0,0,0,3.324,2.661l.219.109c2.166,1.08,4.4,2.2,5,5.425a1,1,0,0,0,.876.044c.253-.16.676-.762.676-2.988a3.747,3.747,0,0,0-1.64-3H10.5A1.99,1.99,0,0,1,9.193,9.5a1.969,1.969,0,0,1,0-3,1.976,1.976,0,0,1,.289-3.211A1.953,1.953,0,0,1,9.277,1H8.5C4.122,1,2.712,2.98,2.7,3ZM15.5,5a1,1,0,0,0-1-1h-4a1,1,0,0,0,0,2h4A1,1,0,0,0,15.5,5ZM14,1H11a1,1,0,0,0,0,2h3a1,1,0,0,0,0-2Zm1.5,6h-5a1,1,0,1,0,0,2h5a1,1,0,1,0,0-2Z" transform="translate(3 1.928)" fill="#009bdf"/>
</svg>
