<svg id="Icon_Like_-_Thumbs_up" data-name="Icon — Like - Thumbs up" xmlns="http://www.w3.org/2000/svg" width="24" height="24" viewBox="0 0 24 24">
  <rect id="Rectangle_1110" data-name="Rectangle 1110" width="24" height="24" fill="#009bdf" opacity="0"/>
  <path id="Path_6185" data-name="Path 6185" d="M16.807,10.572a1.99,1.99,0,0,0-1.307-3.5H12.86a4.793,4.793,0,0,0,1.14-3c0-2.12-.363-3.339-1.14-3.833a2.07,2.07,0,0,0-2.072.084l-.242.114L10.505.7C10.061,3.632,8.087,4.616,6,5.658l-.221.11A11.457,11.457,0,0,0,2.261,8.523H1.673A1.894,1.894,0,0,0,0,10.489V16.2a1.627,1.627,0,0,0,1.673,1.654h.37c.535.607,2.342,2.221,6.456,2.221H14a1.99,1.99,0,0,0,1.518-3.289,1.983,1.983,0,0,0,.637-2.83,1.98,1.98,0,0,0,.652-3.38Zm-.307-1.5a1,1,0,0,1-1,1h-5a1,1,0,1,1,0-2h5A1,1,0,0,1,16.5,9.072Zm-13.8,8-.148-.225H1.673A.628.628,0,0,1,1,16.2V10.489c0-.46.352-.965.673-.965H2.749l.15-.2A10.4,10.4,0,0,1,6.224,6.662l.219-.109c2.166-1.08,4.4-2.2,5-5.425a1,1,0,0,1,.876-.044c.253.16.676.762.676,2.988a3.747,3.747,0,0,1-1.64,3H10.5a1.99,1.99,0,0,0-1.307,3.5,1.969,1.969,0,0,0,0,3,1.976,1.976,0,0,0,.289,3.211,1.953,1.953,0,0,0-.205,2.289H8.5C4.122,19.072,2.712,17.092,2.7,17.076Zm12.8-2a1,1,0,0,1-1,1h-4a1,1,0,0,1,0-2h4A1,1,0,0,1,15.5,15.072Zm-1.5,4H11a1,1,0,0,1,0-2h3a1,1,0,0,1,0,2Zm1.5-6h-5a1,1,0,1,1,0-2h5a1,1,0,1,1,0,2Z" transform="translate(3 2)" fill="#009bdf"/>
</svg>
