<svg id="Icon_Like_-_Thumbs_up" data-name="Icon — Like - Thumbs up" xmlns="http://www.w3.org/2000/svg" width="24" height="24" viewBox="0 0 24 24">
  <rect id="Rectangle_1110" data-name="Rectangle 1110" width="24" height="24" fill="#fff" opacity="0"/>
  <path id="Path_6185" data-name="Path 6185" d="M-153.193,15.428a1.989,1.989,0,0,0,.693-1.5,2.006,2.006,0,0,0-2-2h-2.64a4.793,4.793,0,0,0,1.14-3c0-2.121-.363-3.339-1.14-3.833a2.07,2.07,0,0,0-2.072.084l-.242.114-.04.264c-.444,2.931-2.418,3.915-4.508,4.957l-.221.11a11.457,11.457,0,0,0-3.515,2.755h-.588A1.894,1.894,0,0,0-170,15.345v5.708a1.627,1.627,0,0,0,1.673,1.654h.37c.535.607,2.342,2.221,6.456,2.221h5.5a2,2,0,0,0,2-2,1.983,1.983,0,0,0-.482-1.289,2,2,0,0,0,.982-1.711,1.986,1.986,0,0,0-.345-1.119,2,2,0,0,0,1.345-1.881A1.989,1.989,0,0,0-153.193,15.428Zm-.307-1.5a1,1,0,0,1-1,1h-5a1,1,0,0,1-1-1,1,1,0,0,1,1-1h5A1,1,0,0,1-153.5,13.928Zm-13.8,8-.148-.225h-.879a.628.628,0,0,1-.673-.654V15.345c0-.46.352-.965.673-.965h1.076l.15-.2a10.4,10.4,0,0,1,3.324-2.661l.219-.109c2.166-1.08,4.4-2.2,5-5.425a1,1,0,0,1,.876-.045c.253.161.676.762.676,2.989a3.747,3.747,0,0,1-1.64,3h-.86a2.006,2.006,0,0,0-2,2,1.989,1.989,0,0,0,.693,1.5,1.989,1.989,0,0,0-.693,1.5,1.989,1.989,0,0,0,.693,1.5,1.989,1.989,0,0,0-.693,1.5,2,2,0,0,0,.982,1.711A1.983,1.983,0,0,0-161,22.928a1.978,1.978,0,0,0,.277,1h-.777C-165.878,23.928-167.288,21.948-167.3,21.932Zm12.8-2a1,1,0,0,1-1,1h-4a1,1,0,0,1-1-1,1,1,0,0,1,1-1h4A1,1,0,0,1-154.5,19.928Zm-1.5,4h-3a1,1,0,0,1-1-1,1,1,0,0,1,1-1h3a1,1,0,0,1,1,1A1,1,0,0,1-156,23.928Zm1.5-6h-5a1,1,0,0,1-1-1,1,1,0,0,1,1-1h5a1,1,0,0,1,1,1A1,1,0,0,1-154.5,17.928Z" transform="translate(173 -2.857)" fill="#fff"/>
</svg>
