<svg id="Icon_Books_-_Book_-_Learning_-_Learn" data-name="Icon — Books - Book - Learning - Learn" xmlns="http://www.w3.org/2000/svg" width="24" height="24" viewBox="0 0 24 24">
  <g id="Group_17458" data-name="Group 17458" transform="translate(1.75 5.5)">
    <path id="Path_14925" data-name="Path 14925" d="M4.376,16.578l9.716,1.9a1.161,1.161,0,0,0,.219.021,1.13,1.13,0,0,0,.432-.087l8.6-3.562a1.031,1.031,0,0,0,.656-1.065,1.063,1.063,0,0,0-.868-.931l-9.266-1.833a1.132,1.132,0,0,0-.63.054l-9.046,3.5A1.043,1.043,0,0,0,3.5,15.636,1.06,1.06,0,0,0,4.376,16.578Zm.17-1.073,9.046-3.5A.134.134,0,0,1,13.64,12l.026,0h0l9.266,1.834q.064.013.067.048c0,.008,0,.024-.044.043l-8.6,3.562a.135.135,0,0,1-.077.008L4.567,15.6c-.043-.009-.065-.025-.068-.049C4.5,15.54,4.5,15.523,4.546,15.5Z" transform="translate(-3.5 -11)" fill="#333"/>
    <path id="Path_14926" data-name="Path 14926" d="M4.717,25.909C5.8,26.215,14.367,28,14.954,28a.5.5,0,0,0,.212-.048l8.546-4a.5.5,0,1,0-.424-.906l-8.42,3.941c-1.067-.153-8.6-1.68-9.879-2.041-.489-.138-.524-.793-.468-1.159a.5.5,0,1,0-.989-.151A1.905,1.905,0,0,0,4.717,25.909Z" transform="translate(-3.5 -17)" fill="#333"/>
    <path id="Path_14927" data-name="Path 14927" d="M23.438,16.474l4,.5a.532.532,0,0,0,.063,0,.5.5,0,0,0,.061-1l-4-.5a.5.5,0,1,0-.124.992Z" transform="translate(-13.25 -13.239)" fill="#333"/>
    <path id="Path_14928" data-name="Path 14928" d="M23.288,30.047l-8.42,3.941c-1.067-.153-8.6-1.68-9.879-2.041-.489-.138-.524-.794-.468-1.159a.5.5,0,0,0-.989-.152,1.905,1.905,0,0,0,1.184,2.272C5.8,33.215,14.367,35,14.954,35a.5.5,0,0,0,.212-.048l8.546-4a.5.5,0,1,0-.424-.906Z" transform="translate(-3.5 -20.5)" fill="#333"/>
  </g>
  <rect id="Rectangle_4800" data-name="Rectangle 4800" width="24" height="24" fill="#fff" opacity="0"/>
  <rect id="Rectangle_4801" data-name="Rectangle 4801" width="24" height="24" fill="#fff" opacity="0"/>
</svg>
