<svg id="Icon_Customer_Service_Support" data-name="Icon — Customer Service / Support" xmlns="http://www.w3.org/2000/svg" width="24" height="24" viewBox="0 0 24 24">
  <rect id="Rectangle_1089" data-name="Rectangle 1089" width="24" height="24" fill="#333" opacity="0"/>
  <path id="Path_3562" data-name="Path 3562" d="M-760.5-208.5a.5.5,0,0,1-.5-.5v-3.622c0-2.965-2.7-5.378-6.027-5.378-3.294,0-5.973,2.419-5.973,5.392V-209a.5.5,0,0,1-.5.5.5.5,0,0,1-.5-.5v-3.608c0-3.525,3.128-6.392,6.973-6.392,3.875,0,7.027,2.861,7.027,6.378V-209A.5.5,0,0,1-760.5-208.5Z" transform="translate(779 221.5)" fill="#333"/>
  <path id="Path_3563" data-name="Path 3563" d="M-749.67-203h-2.17a.5.5,0,0,1-.5-.5.5.5,0,0,1,.5-.5h1.67v-2.99L-751.4-207a.5.5,0,0,1-.5-.5.5.5,0,0,1,.5-.5l1.729.013a.5.5,0,0,1,.5.5v3.987A.5.5,0,0,1-749.67-203Z" transform="translate(768.17 216)" fill="#333"/>
  <path id="Path_3564" data-name="Path 3564" d="M-771.331-203H-773.5a.5.5,0,0,1-.354-.146A.5.5,0,0,1-774-203.5l.009-4a.5.5,0,0,1,.5-.5h1.72a.5.5,0,0,1,.5.5.5.5,0,0,1-.5.5h-1.221l-.007,3h1.669a.5.5,0,0,1,.5.5A.5.5,0,0,1-771.331-203Z" transform="translate(779 216)" fill="#333"/>
  <path id="Path_3565" data-name="Path 3565" d="M-760.5-187.5h-16.328a.5.5,0,0,1-.4-.207.5.5,0,0,1-.07-.449A8.417,8.417,0,0,1-769.335-194h1.342a8.417,8.417,0,0,1,7.967,5.844.5.5,0,0,1-.07.449A.5.5,0,0,1-760.5-187.5Zm-15.6-1h14.877a7.4,7.4,0,0,0-6.767-4.5h-1.342A7.4,7.4,0,0,0-776.1-188.5Z" transform="translate(780.664 209)" fill="#333"/>
  <path id="Path_3566" data-name="Path 3566" d="M-765.5-204a5.507,5.507,0,0,1-5.5-5.5,5.507,5.507,0,0,1,5.5-5.5,5.507,5.507,0,0,1,5.5,5.5A5.507,5.507,0,0,1-765.5-204Zm0-10a4.506,4.506,0,0,0-4.5,4.5,4.506,4.506,0,0,0,4.5,4.5,4.506,4.506,0,0,0,4.5-4.5A4.506,4.506,0,0,0-765.5-214Z" transform="translate(777.5 219.5)" fill="#333"/>
  <path id="Path_3567" data-name="Path 3567" d="M-754-199h-6.5a.5.5,0,0,1-.5-.5.5.5,0,0,1,.5-.5h6.5a.5.5,0,0,1,.5.5A.5.5,0,0,1-754-199Z" transform="translate(772.5 212)" fill="#333"/>
</svg>
