<svg id='Icon_-_Order_History' data-name='Icon - Order History' xmlns='http://www.w3.org/2000/svg' width='24'
     height='24' viewBox='0 0 24 24'>
  <defs>
    <clipPath id="clip-path">
      <rect id="Rectangle_4796" data-name="Rectangle 4796" width="24" height="24" fill="none"/>
    </clipPath>
  </defs>
  <g id="Group_38" data-name="Group 38" clip-path="url(#clip-path)">
    <path id="Path_14915" data-name="Path 14915" d="M30,25a5,5,0,1,0,5,5,5.006,5.006,0,0,0-5-5m0,9a4,4,0,1,1,4-4,4,4,0,0,1-4,4" transform="translate(-12.5 -12.5)" fill="#333"/>
    <path id="Path_14916" data-name="Path 14916" d="M34.7,31.1l-1.717,1.288-1.205-.8a.5.5,0,1,0-.555.832l1.5,1A.5.5,0,0,0,33.3,33.4l2-1.5a.5.5,0,0,0-.6-.8" transform="translate(-15.5 -15.5)" fill="#333"/>
    <path id="Path_14917" data-name="Path 14917" d="M22,18.5a.5.5,0,0,0-.5-.5h-6a.5.5,0,0,0,0,1h6a.5.5,0,0,0,.5-.5" transform="translate(-7.5 -9)" fill="#333"/>
    <path id="Path_14918" data-name="Path 14918" d="M21,24.5a.5.5,0,0,0-.5-.5h-5a.5.5,0,0,0,0,1h5a.5.5,0,0,0,.5-.5" transform="translate(-7.5 -12)" fill="#333"/>
    <path id="Path_14919" data-name="Path 14919" d="M15.5,30a.5.5,0,0,0,0,1H19a.5.5,0,0,0,0-1Z" transform="translate(-7.5 -15)" fill="#333"/>
    <path id="Path_14920" data-name="Path 14920" d="M18.816,43H12.5a.5.5,0,0,0,0,1h6.316a.5.5,0,0,0,0-1" transform="translate(-6 -21.5)" fill="#333"/>
    <path id="Path_14921" data-name="Path 14921" d="M39.5,17a.5.5,0,0,0,.5-.5v-6a.5.5,0,0,0-1,0v6a.5.5,0,0,0,.5.5" transform="translate(-19.5 -5)" fill="#333"/>
    <path id="Path_14922" data-name="Path 14922" d="M15.5,21.5A.5.5,0,0,0,15,21H8.434A.439.439,0,0,1,8,20.556V5.444A.439.439,0,0,1,8.434,5H10.5V6a1,1,0,0,0,1,1h6a1,1,0,0,0,1-1V5h2.066A.439.439,0,0,1,21,5.444v7.08a.5.5,0,0,0,1,0V5.444A1.441,1.441,0,0,0,20.566,4H18.5a1,1,0,0,0-1-1h-6a1,1,0,0,0-1,1H8.434A1.441,1.441,0,0,0,7,5.444V20.556A1.441,1.441,0,0,0,8.434,22H15a.5.5,0,0,0,.5-.5M11.5,4h6V6h-6Z" transform="translate(-3.5 -1.5)" fill="#333"/>
  </g>
</svg>
