<svg id="Icon_Business_Growth" data-name="Icon — Business Growth" xmlns="http://www.w3.org/2000/svg" width="24" height="24" viewBox="0 0 24 24">
  <rect id="Rectangle_1571" data-name="Rectangle 1571" width="24" height="24" fill="#333" opacity="0"/>
  <path id="Path_4720" data-name="Path 4720" d="M8.5,35a.5.5,0,0,0-.5.5V39a.5.5,0,0,0,1,0V35.5A.5.5,0,0,0,8.5,35Z" transform="translate(-4 -17.501)"/>
  <path id="Path_4721" data-name="Path 4721" d="M14.5,32a.5.5,0,0,0-.5.5v5a.5.5,0,0,0,1,0v-5A.5.5,0,0,0,14.5,32Z" transform="translate(-7 -16.001)"/>
  <path id="Path_4722" data-name="Path 4722" d="M20.5,29a.5.5,0,0,0-.5.5V36a.5.5,0,0,0,1,0V29.5A.5.5,0,0,0,20.5,29Z" transform="translate(-10 -14.501)"/>
  <path id="Path_4723" data-name="Path 4723" d="M26.5,25a.5.5,0,0,0-.5.5V34a.5.5,0,0,0,1,0V25.5A.5.5,0,0,0,26.5,25Z" transform="translate(-13 -12.501)"/>
  <path id="Path_4724" data-name="Path 4724" d="M32.5,22a.5.5,0,0,0-.5.5v10a.5.5,0,0,0,1,0v-10A.5.5,0,0,0,32.5,22Z" transform="translate(-16 -11.001)"/>
  <path id="Path_4725" data-name="Path 4725" d="M38.5,16a.5.5,0,0,0-.5.5v13a.5.5,0,0,0,1,0v-13A.5.5,0,0,0,38.5,16Z" transform="translate(-19 -8.001)"/>
  <path id="Path_4726" data-name="Path 4726" d="M24,4.458a.478.478,0,0,0-.043-.16c-.006-.013-.012-.024-.019-.036a.494.494,0,0,0-.1-.131s0-.006-.006-.008h0l0,0a.494.494,0,0,0-.153-.085l-.031-.01A.49.49,0,0,0,23.467,4l-.008,0a.5.5,0,0,0-.108.02L19.773,5.142a.5.5,0,1,0,.3.954L21.9,5.524C12.662,15.452,4.529,16.494,4.444,16.5a.5.5,0,0,0,.056,1,.516.516,0,0,0,.056,0c.362-.04,8.661-1.078,18.217-11.438L22.505,7.93a.5.5,0,0,0,.99.142l.5-3.5a.483.483,0,0,0,0-.085A.278.278,0,0,0,24,4.458Z" transform="translate(-2.001 -2.001)"/>
</svg>
