<svg id='Phone_Care' data-name='Phone Care' xmlns='http://www.w3.org/2000/svg' width='24' height='24'
     viewBox='0 0 24 24'>
  <defs>
    <clipPath id="clip-path">
      <rect id="Rectangle_4765" data-name="Rectangle 4765" width="24" height="24" fill="none"/>
    </clipPath>
  </defs>
  <g id="Group_17442" data-name="Group 17442" clip-path="url(#clip-path)">
    <path id="Path_14823" data-name="Path 14823" d="M19.5,23H12a1,1,0,0,1-1-1V5a1,1,0,0,1,1-1H22a1,1,0,0,1,1,1v7.5a.5.5,0,0,0,1,0V5a2,2,0,0,0-2-2H12a2,2,0,0,0-2,2V22a2,2,0,0,0,2,2h7.5a.5.5,0,0,0,0-1" transform="translate(-5 -1.5)" fill="#333" fill-rule="evenodd"/>
    <path id="Path_14824" data-name="Path 14824" d="M20.5,7a.5.5,0,0,0,0,1h3a.5.5,0,0,0,0-1Z" transform="translate(-10 -3.5)" fill="#333" fill-rule="evenodd"/>
    <path id="Path_14825" data-name="Path 14825" d="M29.419,28.618a1.976,1.976,0,0,0-1.27-.571l-3.2-3.2a2.967,2.967,0,0,0-.768-2.863,3.265,3.265,0,0,0-3.329-.81.5.5,0,0,0-.172.819l1.4,1.4-.69.69-1.4-1.4a.5.5,0,0,0-.819.172,3.264,3.264,0,0,0,.811,3.329,2.964,2.964,0,0,0,2.863.768l3.2,3.2a1.979,1.979,0,1,0,3.373-1.533m-.707,2.094a1,1,0,0,1-1.388,0,.964.964,0,0,1-.28-.744.5.5,0,0,0-.146-.38l-3.562-3.561a.5.5,0,0,0-.536-.113,1.966,1.966,0,0,1-2.11-.438,2.46,2.46,0,0,1-.665-1.345l1,1.005a.5.5,0,0,0,.7.007l.727-.7.684-.713a.5.5,0,0,0-.007-.7l-1.005-1a2.461,2.461,0,0,1,1.346.664,1.97,1.97,0,0,1,.439,2.11.5.5,0,0,0,.112.535L27.587,28.9a.49.49,0,0,0,.379.146.978.978,0,0,1,.746,1.668" transform="translate(-9.5 -10.5)" fill="#333" fill-rule="evenodd"/>
    <path id="Path_14826" data-name="Path 14826" d="M25.821,36.255l-.908.908L24.5,36.75l.9-.9a.5.5,0,0,0-.707-.707L23.439,36.4a.5.5,0,0,0,0,.707l1.121,1.121a.5.5,0,0,0,.707,0l1.261-1.262a.5.5,0,1,0-.707-.707" transform="translate(-11.646 -17.5)" fill="#333" fill-rule="evenodd"/>
    <path id="Path_14827" data-name="Path 14827" d="M34.7,25.146l-1.262,1.262a.5.5,0,0,0,.707.708l.908-.909.413.413-.9.9a.5.5,0,1,0,.707.707l1.25-1.25a.5.5,0,0,0,0-.707l-1.12-1.121a.5.5,0,0,0-.707,0" transform="translate(-16.646 -12.5)" fill="#333" fill-rule="evenodd"/>
    <path id="Path_14828" data-name="Path 14828" d="M36.505,38a.5.5,0,1,0,.494.506A.5.5,0,0,0,36.505,38" transform="translate(-18 -19)" fill="#333" fill-rule="evenodd"/>
    <rect id="Rectangle_4766" data-name="Rectangle 4766" width="24" height="24" fill="#fff" opacity="0"/>
  </g>
</svg>
