<svg id="Icon_Bullseye_Target" data-name="Icon — Bullseye / Target" xmlns="http://www.w3.org/2000/svg" width="24" height="24" viewBox="0 0 24 24">
  <rect id="Rectangle_1064" data-name="Rectangle 1064" width="24" height="24" fill="#333" opacity="0"/>
  <path id="Path_5594" data-name="Path 5594" d="M21.962,2.809A.5.5,0,0,0,21.5,2.5h-2V.5a.5.5,0,0,0-.854-.354l-3,3A.5.5,0,0,0,15.5,3.5V5.794l-.507.507a9.025,9.025,0,1,0,.707.707l.507-.506H18.5a.5.5,0,0,0,.354-.147l3-3a.5.5,0,0,0,.108-.545M17,13a8.03,8.03,0,1,1-2.716-5.99L12.873,8.422a6.007,6.007,0,1,0,.707.707l1.411-1.412A7.956,7.956,0,0,1,17,13m-6,0a2.023,2.023,0,1,1-.991-1.717L8.646,12.647a.5.5,0,1,0,.707.707l1.363-1.363A1.978,1.978,0,0,1,11,13m-.264-2.443a3.006,3.006,0,1,0,.707.707l1.426-1.425a5.008,5.008,0,1,1-.707-.707ZM18.293,5.5H16.5V3.708l2-2V3a.5.5,0,0,0,.5.5h1.293Z" transform="translate(1.5 0.5)" fill="#333"/>
</svg>
