<svg id="Icon_Transaction_History" data-name="Icon — Transaction History" xmlns="http://www.w3.org/2000/svg" width="24" height="24" viewBox="0 0 24 24">
  <rect id="Rectangle_1090" data-name="Rectangle 1090" width="24" height="24" fill="#333" opacity="0"/>
  <path id="Path_5325" data-name="Path 5325" d="M17.68,29.5a.5.5,0,0,0-.5-.5H11.86a.5.5,0,1,0,0,1h5.32A.5.5,0,0,0,17.68,29.5Z" transform="translate(-5.68 -14.495)" fill="#333"/>
  <path id="Path_5326" data-name="Path 5326" d="M11.86,33.734a.5.5,0,1,0,0,1h4.82a.5.5,0,0,0,0-1Z" transform="translate(-5.68 -16.865)" fill="#333"/>
  <path id="Path_5327" data-name="Path 5327" d="M14.5,22.986H3.977a.88.88,0,0,1-.6-.246A1.326,1.326,0,0,1,3.039,22H13a.5.5,0,1,0,0-1H5.5L5.457,4.234c0-.207.115-1.239,1.793-1.239,1.741,0,9.143.007,12.607.01a2.925,2.925,0,0,0-.413,1.587c-.006.972,0,4.784.008,7.908a.5.5,0,0,0,.5.5h0a.5.5,0,0,0,.5-.5c-.009-3.122-.014-6.929-.008-7.9.01-1.5,1.014-1.589,1.212-1.592h0a.505.505,0,0,0,.5-.5.5.5,0,0,0-.5-.5h-.013C21.242,2.006,9.5,2,7.25,2,5.041,2,4.457,3.455,4.457,4.23L4.5,21h-2a.5.5,0,0,0-.5.5,2.605,2.605,0,0,0,.7,1.98,1.889,1.889,0,0,0,1.251.509H14.5a.5.5,0,0,0,0-1Z" transform="translate(-1 -0.995)" fill="#333"/>
  <path id="Path_5328" data-name="Path 5328" d="M30,25a5,5,0,1,0,5,5A5.006,5.006,0,0,0,30,25Zm0,9a4,4,0,1,1,4-4A4,4,0,0,1,30,34Z" transform="translate(-12.5 -12.498)" fill="#333"/>
  <path id="Path_5329" data-name="Path 5329" d="M34.7,31.1l-1.717,1.288-1.205-.8a.5.5,0,1,0-.555.832l1.5,1A.5.5,0,0,0,33.3,33.4l2-1.5a.5.5,0,0,0-.6-.8Z" transform="translate(-15.5 -15.498)" fill="#333"/>
  <path id="Path_5330" data-name="Path 5330" d="M15.65,14.018a1.388,1.388,0,0,0,.217-.413,1.6,1.6,0,0,0-.037-1.073,1.169,1.169,0,0,0-.348-.459,1.687,1.687,0,0,0-.605-.3,3.193,3.193,0,0,0-.884-.107H12.45v5.061h.942V14.75h.4a.462.462,0,0,1,.212.038.38.38,0,0,1,.132.13l1.064,1.62a.373.373,0,0,0,.35.189H16.4l-1.267-1.869a.9.9,0,0,0-.14-.17.925.925,0,0,0-.168-.125,1.744,1.744,0,0,0,.474-.22A1.446,1.446,0,0,0,15.65,14.018Zm-.691-.472a.739.739,0,0,1-.191.278.885.885,0,0,1-.325.185,1.468,1.468,0,0,1-.464.066h-.588v-1.68h.6a1.214,1.214,0,0,1,.775.207.719.719,0,0,1,.254.592A.964.964,0,0,1,14.959,13.546Z" transform="translate(-6.225 -5.831)" fill="#333"/>
  <path id="Path_5331" data-name="Path 5331" d="M26.111,16.727h.83V11.666h-.711c-.042,0-.078,0-.108,0a.294.294,0,0,0-.083.017.2.2,0,0,0-.068.046.339.339,0,0,0-.06.084l-1.494,2.8c-.04.075-.077.153-.112.233s-.069.164-.1.25c-.033-.084-.066-.166-.1-.245s-.07-.157-.11-.232l-1.515-2.81a.382.382,0,0,0-.058-.084.179.179,0,0,0-.066-.046.294.294,0,0,0-.082-.017c-.031,0-.066,0-.109,0h-.71v5.061h.83V13.458c0-.063,0-.132-.007-.207s-.01-.151-.017-.227L23.8,15.908a.353.353,0,0,0,.332.207h.133a.352.352,0,0,0,.332-.207l1.53-2.873q-.021.228-.021.424Z" transform="translate(-10.726 -5.831)" fill="#333"/>
</svg>
