<svg id="Icon_User" data-name="Icon — User" xmlns="http://www.w3.org/2000/svg" width="24" height="24" viewBox="0 0 24 24">
  <rect id="Rectangle_1527" data-name="Rectangle 1527" width="24" height="24" fill="#333" opacity="0"/>
  <path id="Path_4267" data-name="Path 4267" d="M17,16.35a8.458,8.458,0,0,0-6.45-5.75,5.525,5.525,0,1,0-4.05,0A8.449,8.449,0,0,0,0,16.35a.743.743,0,0,0,.1.45.455.455,0,0,0,.4.2h16a.617.617,0,0,0,.4-.2A.672.672,0,0,0,17,16.35ZM4,5.5A4.5,4.5,0,1,1,8.5,10,4.481,4.481,0,0,1,4,5.5ZM1.2,16a7.268,7.268,0,0,1,6.6-4.5H9.1A7.215,7.215,0,0,1,15.7,16Z" transform="translate(3.5 3.5)" fill="#333"/>
</svg>
