<svg id="Icon_Timer" data-name="Icon — Timer" xmlns="http://www.w3.org/2000/svg" width="48" height="48" viewBox="0 0 48 48">
  <rect id="Rectangle_1671" data-name="Rectangle 1671" width="48" height="48" fill="#333" opacity="0"/>
  <g id="Group_5453" data-name="Group 5453" transform="translate(-764 -7712)">
    <path id="Path_5111" data-name="Path 5111" d="M-251.293,14.293l-5-5a1,1,0,0,0-1.414,0,1,1,0,0,0,0,1.414l1.793,1.793-2.293,2.293a17.064,17.064,0,0,0-10.8-4.749c0-.016.009-.028.009-.044V6h3a1,1,0,0,0,1-1,1,1,0,0,0-1-1h-8a1,1,0,0,0-1,1,1,1,0,0,0,1,1h3v4c0,.011.006.02.006.031a17.054,17.054,0,0,0-3.4.552A17.016,17.016,0,0,0-286.417,31.4,17.027,17.027,0,0,0-270,44a16.927,16.927,0,0,0,4.395-.581A17.016,17.016,0,0,0-253.583,22.6a16.866,16.866,0,0,0-3.264-6.341l2.347-2.347,1.793,1.793A1,1,0,0,0-252,16a1,1,0,0,0,.707-.293A1,1,0,0,0-251.293,14.293Zm-14.826,27.192a15.014,15.014,0,0,1-18.366-10.6,15.013,15.013,0,0,1,10.6-18.366A14.962,14.962,0,0,1-270,12a15.025,15.025,0,0,1,14.489,11.117A15.013,15.013,0,0,1-266.119,41.485Z" transform="translate(1057.998 7711.999)" fill="#333"/>
    <path id="Path_5112" data-name="Path 5112" d="M-261.84,21.134-270,25.846l-6.446-3.722a1,1,0,0,0-1.366.366,1,1,0,0,0,.366,1.366l6.946,4.01A1,1,0,0,0-270,28a1,1,0,0,0,.5-.134l8.66-5a1,1,0,0,0,.366-1.366A1,1,0,0,0-261.84,21.134Z" transform="translate(1057.998 7711.999)" fill="#333"/>
  </g>
</svg>
