<svg xmlns="http://www.w3.org/2000/svg" width="20" height="20" viewBox="0 0 20 20"><defs><style>.a{fill:#009bdf;}</style></defs><path class="a" d="M18.086,26.324v7.817a.624.624,0,0,1-.623.623H.623A.624.624,0,0,1,0,34.141V17.3a.624.624,0,0,1,.623-.623H8.44a.616.616,0,0,1,.589.434.5.5,0,0,1,.034.189l-.017,7.777a.619.619,0,0,0,.617.623h7.8a.5.5,0,0,1,.189.034A.615.615,0,0,1,18.086,26.324Z" transform="translate(0 -14.764)"/><path class="a" d="M104.48.623v7.8a.624.624,0,0,1-.623.623h-7.8a.624.624,0,0,1-.623-.623V.623A.624.624,0,0,1,96.057,0h7.8A.624.624,0,0,1,104.48.623Z" transform="translate(-84.48)"/></svg>