<svg xmlns="http://www.w3.org/2000/svg" width="48" height="48" viewBox="0 0 48 48"><defs><style>.a,.b{fill:none;}.a{opacity:0.1;}.c{fill:#eaeaea;}</style></defs><rect class="a" width="42" height="30" rx="3" transform="translate(3 9)"/><rect class="a" width="42" height="30" rx="3" transform="translate(39 3) rotate(90)"/><rect class="a" width="36" height="36" rx="3" transform="translate(6 6)"/><circle class="a" cx="21" cy="21" r="21" transform="translate(3 3)"/><rect class="b" width="48" height="48"/><rect class="b" width="42" height="42" transform="translate(3 3)"/><rect class="b" width="42" height="42" rx="6" transform="translate(3 3)"/><rect class="b" width="42" height="42" rx="2" transform="translate(3 3)"/><path class="c" d="M13,45H35a3,3,0,0,0,3-3V6a3,3,0,0,0-3-3H13a3,3,0,0,0-3,3V42a3,3,0,0,0,3,3ZM14,7H34V41H14Z"/><circle class="c" cx="2" cy="2" r="2" transform="translate(22 35)"/><rect class="c" width="6" height="2" transform="translate(21 9)"/></svg>