<svg xmlns="http://www.w3.org/2000/svg" width="40" height="40" viewBox="0 0 40 40"><defs><style>.a{fill:#6ba9d7;}</style></defs><g transform="translate(0 -0.001)"><g transform="translate(0 0.001)"><g transform="translate(0 0)"><path class="a" d="M20.844,19.2c-.007-.007-.008-.016-.015-.023l-6.688-6.688v-4.2a1.171,1.171,0,0,0-.343-.829L6.766.345a1.172,1.172,0,0,0-2,.829V4.689H1.172a1.172,1.172,0,0,0-.828,2L7.453,13.8a1.171,1.171,0,0,0,.829.343h4.2l6.688,6.688c.007.007.016.009.023.015A1.167,1.167,0,0,0,20.844,19.2Z" transform="translate(0 -0.001)"/></g></g><g transform="translate(0 0.001)"><g transform="translate(0 0)"><path class="a" d="M20,0a19.824,19.824,0,0,0-8.387,1.955l3.595,3.595A15.272,15.272,0,1,1,5.552,15.21L1.957,11.615A19.827,19.827,0,0,0,0,20,20,20,0,1,0,20,0Z" transform="translate(-0.003 -0.002)"/></g></g><g transform="translate(9.453 9.455)"><path class="a" d="M131.549,121a10.423,10.423,0,0,0-3.516.648v1.412l2.709,2.709a5.769,5.769,0,0,1,.806-.082,5.859,5.859,0,1,1-5.859,5.859,5.767,5.767,0,0,1,.082-.806l-2.709-2.709H121.65a10.423,10.423,0,0,0-.648,3.516A10.547,10.547,0,1,0,131.549,121Z" transform="translate(-121.002 -121.001)"/></g></g></svg>