<svg xmlns="http://www.w3.org/2000/svg" width="20" height="20" viewBox="0 0 20 20"><defs><style>.a{fill:#009bdf;}</style></defs><g transform="translate(0 -0.001)"><g transform="translate(0 0.001)"><g transform="translate(0 0)"><path class="a" d="M10.422,9.6s0-.008-.008-.011L7.071,6.243v-2.1A.586.586,0,0,0,6.9,3.728L3.383.173a.586.586,0,0,0-1,.414V2.345H.586a.586.586,0,0,0-.414,1L3.727,6.9a.585.585,0,0,0,.414.172h2.1l3.344,3.344s.008,0,.011.008a.583.583,0,0,0,.825-.825Z" transform="translate(0 -0.001)"/></g></g><g transform="translate(0 0.001)"><g transform="translate(0 0)"><path class="a" d="M10,0A9.912,9.912,0,0,0,5.81.979l1.8,1.8A7.636,7.636,0,1,1,2.778,7.606l-1.8-1.8A9.914,9.914,0,0,0,0,10,10,10,0,1,0,10,0Z" transform="translate(-0.003 -0.002)"/></g></g><g transform="translate(4.727 4.728)"><path class="a" d="M126.275,121a5.211,5.211,0,0,0-1.758.324v.706l1.355,1.355a2.884,2.884,0,0,1,.4-.041,2.93,2.93,0,1,1-2.93,2.93,2.883,2.883,0,0,1,.041-.4l-1.355-1.355h-.706a5.211,5.211,0,0,0-.324,1.758A5.273,5.273,0,1,0,126.275,121Z" transform="translate(-121.002 -121.001)"/></g></g></svg>